<svg width="22" height="22" viewBox="0 0 22 22" fill="none" xmlns="http://www.w3.org/2000/svg">
<path d="M10.3086 3.27386V7.20241C10.3072 8.0702 9.96737 8.90202 9.36352 9.51568C8.75967 10.1293 7.94116 10.4747 7.08726 10.4761H3.22156C2.36749 10.4747 1.54897 10.1294 0.94513 9.51568C0.341286 8.90202 0.00150205 8.0702 8.83103e-05 7.20241V3.27386C0.00146892 2.40589 0.341273 1.57407 0.94513 0.960408C1.54899 0.346746 2.36749 0.00143673 3.22156 0H7.08726C7.94116 0.00140306 8.75967 0.346732 9.36352 0.960408C9.96736 1.57407 10.3071 2.40589 10.3086 3.27386ZM18.4265 0H14.5608C13.7069 0.00140306 12.8884 0.346732 12.2846 0.960408C11.6807 1.57407 11.3409 2.40589 11.3395 3.27386V7.20241C11.3409 8.0702 11.6807 8.90202 12.2846 9.51568C12.8884 10.1293 13.7069 10.4747 14.5608 10.4761H18.4265C19.2806 10.4747 20.0991 10.1294 20.703 9.51568C21.3068 8.90202 21.6466 8.0702 21.648 7.20241V3.27386C21.6466 2.40589 21.3068 1.57407 20.703 0.960408C20.0991 0.346746 19.2806 0.00143673 18.4265 0ZM7.087 11.5239H3.22147C2.3674 11.5253 1.54889 11.8706 0.945042 12.4843C0.341198 13.098 0.00141374 13.9298 0 14.7976V18.7261C0.00138061 19.5941 0.341184 20.4259 0.945042 21.0396C1.5489 21.6533 2.3674 21.9986 3.22147 22H7.08717C7.94107 21.9986 8.75959 21.6533 9.36343 21.0396C9.96727 20.4259 10.3071 19.5941 10.3085 18.7261V14.7976C10.3071 13.9298 9.96729 13.098 9.36343 12.4843C8.75959 11.8707 7.94107 11.5253 7.08717 11.5239H7.087ZM18.4265 11.5239H14.5608C13.7069 11.5253 12.8884 11.8706 12.2846 12.4843C11.6807 13.098 11.3409 13.9298 11.3395 14.7976V18.7261C11.3409 19.5941 11.6807 20.4259 12.2846 21.0396C12.8884 21.6533 13.7069 21.9986 14.5608 22H18.4265C19.2806 21.9986 20.0991 21.6533 20.703 21.0396C21.3068 20.4259 21.6466 19.5941 21.648 18.7261V14.7976C21.6466 13.9298 21.3068 13.098 20.703 12.4843C20.0991 11.8707 19.2806 11.5253 18.4265 11.5239Z" fill="white"/>
</svg>
