<svg width="21" height="21" viewBox="0 0 21 21" fill="none" xmlns="http://www.w3.org/2000/svg">
<path d="M19.9224 7.39418L13.562 1.03779L14.0088 0.591266C14.4118 0.18852 14.9111 -0.00847593 15.5069 0.000279426C16.1026 0.00903478 16.602 0.214786 17.005 0.617532L20.3955 4.00585C20.7985 4.4086 21 4.90328 21 5.48989C21 6.0765 20.7985 6.57117 20.3955 6.97392L19.9224 7.39418ZM6.96496 20.3959C6.56195 20.7986 6.06696 21 5.47998 21C4.89299 21 4.398 20.7986 3.99499 20.3959L0.604506 17.0076C0.201502 16.6048 0 16.1101 0 15.5235C0 14.9369 0.201502 14.4422 0.604506 14.0395L1.02503 13.6192L7.38548 19.9756L6.96496 20.3959ZM10.776 19.6604C10.5657 19.8706 10.3204 19.9756 10.0401 19.9756C9.7597 19.9756 9.51439 19.8706 9.30413 19.6604L1.34043 11.7018C1.13016 11.4917 1.02503 11.2465 1.02503 10.9664C1.02503 10.6862 1.13016 10.441 1.34043 10.2309L2.83855 8.70748C3.04881 8.49735 3.2985 8.39229 3.58761 8.39229C3.87672 8.39229 4.12641 8.49735 4.33667 8.70748L5.99249 10.3622L10.3554 6.00208L8.69963 4.34731C8.48936 4.13719 8.38423 3.89204 8.38423 3.61186C8.38423 3.33169 8.48936 3.08654 8.69963 2.87641L10.1977 1.35298C10.408 1.14285 10.6577 1.03779 10.9468 1.03779C11.2359 1.03779 11.4856 1.14285 11.6959 1.35298L19.6596 9.3116C19.8698 9.52173 19.975 9.77126 19.975 10.0602C19.975 10.3491 19.8698 10.5986 19.6596 10.8088L18.1352 12.3059C17.9249 12.5161 17.6796 12.6211 17.3993 12.6211C17.1189 12.6211 16.8736 12.5161 16.6633 12.3059L15.0075 10.6512L10.6446 15.0113L12.3004 16.6661C12.5106 16.8762 12.6158 17.1258 12.6158 17.4147C12.6158 17.7036 12.5106 17.9531 12.3004 18.1633L10.776 19.6604Z" fill="white"/>
</svg>
