<svg width="24" height="16" viewBox="0 0 24 16" fill="none" xmlns="http://www.w3.org/2000/svg">
<path d="M6.65718 15.6063L0.375534 9.02013C0.238976 8.87696 0.142475 8.72185 0.0860312 8.55481C0.028677 8.38777 0 8.2088 0 8.0179C0 7.82699 0.028677 7.64802 0.0860312 7.48098C0.142475 7.31394 0.238976 7.15884 0.375534 7.01566L6.69132 0.393736C6.94168 0.131245 7.24893 0 7.61309 0C7.97724 0 8.29587 0.143176 8.56899 0.42953C8.81934 0.69202 8.94452 1.0261 8.94452 1.43177C8.94452 1.83743 8.81934 2.17151 8.56899 2.434L4.60882 6.58613H22.6344C23.0213 6.58613 23.3454 6.7231 23.6067 6.99705C23.8689 7.27194 24 7.61223 24 8.0179C24 8.42356 23.8689 8.76337 23.6067 9.03731C23.3454 9.31221 23.0213 9.44966 22.6344 9.44966H4.60882L8.60313 13.6376C8.85349 13.9001 8.97866 14.2222 8.97866 14.604C8.97866 14.9858 8.8421 15.3199 8.56899 15.6063C8.31863 15.8688 8 16 7.61309 16C7.22617 16 6.90754 15.8688 6.65718 15.6063Z" fill="white"/>
</svg>
