<svg width="17" height="16" viewBox="0 0 17 16" fill="none" xmlns="http://www.w3.org/2000/svg">
<path d="M6.3325 15.9041C6.04917 16.0417 5.77292 16.0312 5.50375 15.8728C5.23458 15.7149 5.1 15.4778 5.1 15.1615V12.3768H1.7C1.2325 12.3768 0.832433 12.2153 0.4998 11.8924C0.1666 11.569 0 11.1803 0 10.7265V1.65024C0 1.19642 0.1666 0.80779 0.4998 0.484344C0.832433 0.161448 1.2325 0 1.7 0H15.3C15.7675 0 16.1679 0.161448 16.5011 0.484344C16.8337 0.80779 17 1.19642 17 1.65024V10.7265C17 11.1803 16.8337 11.569 16.5011 11.8924C16.1679 12.2153 15.7675 12.3768 15.3 12.3768H11.9V15.1615C11.9 15.4778 11.7654 15.7149 11.4963 15.8728C11.2271 16.0312 10.9508 16.0417 10.6675 15.9041L8.5 14.8521L6.3325 15.9041ZM1.7 9.0763H15.3V6.60094H1.7V9.0763Z" fill="white"/>
</svg>
