<svg width="18" height="18" viewBox="0 0 18 18" fill="none" xmlns="http://www.w3.org/2000/svg">
<path d="M2 18C1.45 18 0.979 17.8043 0.587 17.413C0.195667 17.021 0 16.55 0 16V2C0 1.45 0.195667 0.979 0.587 0.587C0.979 0.195667 1.45 0 2 0H16C16.55 0 17.021 0.195667 17.413 0.587C17.8043 0.979 18 1.45 18 2V16C18 16.55 17.8043 17.021 17.413 17.413C17.021 17.8043 16.55 18 16 18H2ZM5 14C5.28333 14 5.521 13.904 5.713 13.712C5.90433 13.5207 6 13.2833 6 13C6 12.7167 5.90433 12.479 5.713 12.287C5.521 12.0957 5.28333 12 5 12C4.71667 12 4.479 12.0957 4.287 12.287C4.09567 12.479 4 12.7167 4 13C4 13.2833 4.09567 13.5207 4.287 13.712C4.479 13.904 4.71667 14 5 14ZM5 10C5.28333 10 5.521 9.904 5.713 9.712C5.90433 9.52067 6 9.28333 6 9C6 8.71667 5.90433 8.479 5.713 8.287C5.521 8.09567 5.28333 8 5 8C4.71667 8 4.479 8.09567 4.287 8.287C4.09567 8.479 4 8.71667 4 9C4 9.28333 4.09567 9.52067 4.287 9.712C4.479 9.904 4.71667 10 5 10ZM5 6C5.28333 6 5.521 5.904 5.713 5.712C5.90433 5.52067 6 5.28333 6 5C6 4.71667 5.90433 4.479 5.713 4.287C5.521 4.09567 5.28333 4 5 4C4.71667 4 4.479 4.09567 4.287 4.287C4.09567 4.479 4 4.71667 4 5C4 5.28333 4.09567 5.52067 4.287 5.712C4.479 5.904 4.71667 6 5 6ZM9 14H13C13.2833 14 13.5207 13.904 13.712 13.712C13.904 13.5207 14 13.2833 14 13C14 12.7167 13.904 12.479 13.712 12.287C13.5207 12.0957 13.2833 12 13 12H9C8.71667 12 8.47933 12.0957 8.288 12.287C8.096 12.479 8 12.7167 8 13C8 13.2833 8.096 13.5207 8.288 13.712C8.47933 13.904 8.71667 14 9 14ZM9 10H13C13.2833 10 13.5207 9.904 13.712 9.712C13.904 9.52067 14 9.28333 14 9C14 8.71667 13.904 8.479 13.712 8.287C13.5207 8.09567 13.2833 8 13 8H9C8.71667 8 8.47933 8.09567 8.288 8.287C8.096 8.479 8 8.71667 8 9C8 9.28333 8.096 9.52067 8.288 9.712C8.47933 9.904 8.71667 10 9 10ZM9 6H13C13.2833 6 13.5207 5.904 13.712 5.712C13.904 5.52067 14 5.28333 14 5C14 4.71667 13.904 4.479 13.712 4.287C13.5207 4.09567 13.2833 4 13 4H9C8.71667 4 8.47933 4.09567 8.288 4.287C8.096 4.479 8 4.71667 8 5C8 5.28333 8.096 5.52067 8.288 5.712C8.47933 5.904 8.71667 6 9 6Z" fill="white"/>
</svg>
