<svg width="22" height="22" viewBox="0 0 22 22" fill="none" xmlns="http://www.w3.org/2000/svg">
<path d="M8.25 12.65C7.18667 12.65 6.27917 12.2742 5.5275 11.5225C4.77583 10.7708 4.4 9.86333 4.4 8.8C4.4 7.73667 4.77583 6.82917 5.5275 6.0775C6.27917 5.32583 7.18667 4.95 8.25 4.95C9.31333 4.95 10.2208 5.32583 10.9725 6.0775C11.7242 6.82917 12.1 7.73667 12.1 8.8C12.1 9.86333 11.7242 10.7708 10.9725 11.5225C10.2208 12.2742 9.31333 12.65 8.25 12.65ZM8.25 10.45C8.70833 10.45 9.09773 10.2894 9.4182 9.9682C9.7394 9.64773 9.9 9.25833 9.9 8.8C9.9 8.34167 9.7394 7.95227 9.4182 7.6318C9.09773 7.3106 8.70833 7.15 8.25 7.15C7.79167 7.15 7.40227 7.3106 7.0818 7.6318C6.7606 7.95227 6.6 8.34167 6.6 8.8C6.6 9.25833 6.7606 9.64773 7.0818 9.9682C7.40227 10.2894 7.79167 10.45 8.25 10.45ZM15.95 13.75C15.18 13.75 14.5292 13.4842 13.9975 12.9525C13.4658 12.4208 13.2 11.77 13.2 11C13.2 10.23 13.4658 9.57917 13.9975 9.0475C14.5292 8.51583 15.18 8.25 15.95 8.25C16.72 8.25 17.3708 8.51583 17.9025 9.0475C18.4342 9.57917 18.7 10.23 18.7 11C18.7 11.77 18.4342 12.4208 17.9025 12.9525C17.3708 13.4842 16.72 13.75 15.95 13.75ZM9.13 19.58C9.955 17.9117 11.055 16.7977 12.43 16.2382C13.805 15.6794 14.9783 15.4 15.95 15.4C16.3717 15.4 16.7842 15.4367 17.1875 15.51C17.5908 15.5833 17.985 15.675 18.37 15.785C18.81 15.0883 19.1583 14.3367 19.415 13.53C19.6717 12.7233 19.8 11.88 19.8 11C19.8 8.54333 18.9475 6.4625 17.2425 4.7575C15.5375 3.0525 13.4567 2.2 11 2.2C8.54333 2.2 6.4625 3.0525 4.7575 4.7575C3.0525 6.4625 2.2 8.54333 2.2 11C2.2 11.825 2.30523 12.6133 2.5157 13.365C2.7269 14.1167 3.04333 14.8133 3.465 15.455C4.18 15.0883 4.93643 14.8042 5.7343 14.6025C6.53143 14.4008 7.37 14.3 8.25 14.3C8.83667 14.3 9.4006 14.3502 9.9418 14.4507C10.4823 14.5519 11.0183 14.685 11.55 14.85C11.1283 15.07 10.7298 15.3267 10.3543 15.62C9.9781 15.9133 9.625 16.225 9.295 16.555C9.075 16.5183 8.88727 16.5 8.7318 16.5H8.25C7.645 16.5 7.05833 16.5642 6.49 16.6925C5.92167 16.8208 5.37167 17.0133 4.84 17.27C5.42667 17.8567 6.08227 18.3473 6.8068 18.7418C7.5306 19.1356 8.305 19.415 9.13 19.58ZM11 22C9.47833 22 8.04833 21.7111 6.71 21.1332C5.37167 20.5561 4.2075 19.7725 3.2175 18.7825C2.2275 17.7925 1.44393 16.6283 0.8668 15.29C0.288933 13.9517 0 12.5217 0 11C0 9.47833 0.288933 8.04833 0.8668 6.71C1.44393 5.37167 2.2275 4.2075 3.2175 3.2175C4.2075 2.2275 5.37167 1.44357 6.71 0.8657C8.04833 0.288567 9.47833 0 11 0C12.5217 0 13.9517 0.288567 15.29 0.8657C16.6283 1.44357 17.7925 2.2275 18.7825 3.2175C19.7725 4.2075 20.5561 5.37167 21.1332 6.71C21.7111 8.04833 22 9.47833 22 11C22 12.5217 21.7111 13.9517 21.1332 15.29C20.5561 16.6283 19.7725 17.7925 18.7825 18.7825C17.7925 19.7725 16.6283 20.5561 15.29 21.1332C13.9517 21.7111 12.5217 22 11 22Z" fill="white"/>
</svg>
