<svg width="22" height="22" viewBox="0 0 22 22" fill="none" xmlns="http://www.w3.org/2000/svg">
<path d="M11.9622 20.0912L0 10.7249V12.6383C0 13.1454 0.256595 13.6333 0.720911 13.9873L10.2394 21.4402C11.1924 22.1865 12.7442 22.1865 13.6973 21.4402L21.2852 15.4989C22.2383 14.7527 22.2383 13.5376 21.2852 12.7914L11.9622 20.0912Z" fill="white"/>
<path d="M10.2394 16.6567C11.1924 17.4029 12.7442 17.4029 13.6973 16.6567L21.2852 10.7154C22.2383 9.96912 22.2383 8.75408 21.2852 8.00783L11.7667 0.554903C11.3024 0.200913 10.6793 0 10.0317 0H2.44377C1.09969 0 0 0.861057 0 1.91346V7.85475C0 8.36182 0.256595 8.84975 0.720911 9.20374L10.2394 16.6567ZM5.193 2.87019C6.0361 2.87019 6.72036 3.40596 6.72036 4.0661C6.72036 4.72624 6.0361 5.26201 5.193 5.26201C4.3499 5.26201 3.66565 4.72624 3.66565 4.0661C3.66565 3.40596 4.3499 2.87019 5.193 2.87019Z" fill="white"/>
</svg>
