<svg width="15" height="15" viewBox="0 0 15 15" fill="none" xmlns="http://www.w3.org/2000/svg">
<path d="M14.8703 14.235L11.2242 10.5898C12.2023 9.46563 12.7944 7.99889 12.7944 6.39579C12.7944 2.86696 9.92349 0 6.39721 0C2.8676 0 0 2.87029 0 6.39579C0 9.92129 2.87092 12.7916 6.39721 12.7916C8.00067 12.7916 9.46773 12.1996 10.5922 11.2217L14.2382 14.867C14.3247 14.9534 14.4411 15 14.5542 15C14.6673 15 14.7838 14.9568 14.8703 14.867C15.0432 14.694 15.0432 14.408 14.8703 14.235ZM0.894877 6.39579C0.894877 3.36253 3.36327 0.898004 6.39388 0.898004C9.42781 0.898004 11.8929 3.36585 11.8929 6.39579C11.8929 9.42572 9.42781 11.8969 6.39388 11.8969C3.36327 11.8969 0.894877 9.42905 0.894877 6.39579Z" fill="#303030"/>
</svg>
