<svg width="35" height="35" viewBox="0 0 35 35" fill="none" xmlns="http://www.w3.org/2000/svg">
<g clip-path="url(#clip0_19_31)">
<path d="M27.9123 18.8708C27.9706 18.4333 27.9998 17.9813 27.9998 17.5C27.9998 17.0333 27.9706 16.5667 27.8977 16.1292L30.8581 13.825C31.1206 13.6208 31.1935 13.2271 31.0331 12.9354L28.2331 8.09375C28.0581 7.77292 27.6935 7.67083 27.3727 7.77292L23.8873 9.17292C23.1581 8.61875 22.3852 8.15208 21.5248 7.80208L20.9998 4.09792C20.9414 3.74792 20.6498 3.5 20.2998 3.5H14.6998C14.3498 3.5 14.0727 3.74792 14.0143 4.09792L13.4893 7.80208C12.6289 8.15208 11.8414 8.63333 11.1268 9.17292L7.64142 7.77292C7.32059 7.65625 6.956 7.77292 6.781 8.09375L3.99559 12.9354C3.82059 13.2417 3.87892 13.6208 4.17059 13.825L7.131 16.1292C7.05809 16.5667 6.99975 17.0479 6.99975 17.5C6.99975 17.9521 7.02892 18.4333 7.10184 18.8708L4.14142 21.175C3.87892 21.3792 3.806 21.7729 3.96642 22.0646L6.76642 26.9063C6.94142 27.2271 7.306 27.3292 7.62684 27.2271L11.1123 25.8271C11.8414 26.3813 12.6143 26.8479 13.4748 27.1979L13.9998 30.9021C14.0727 31.2521 14.3498 31.5 14.6998 31.5H20.2998C20.6498 31.5 20.9414 31.2521 20.9852 30.9021L21.5102 27.1979C22.3706 26.8479 23.1581 26.3813 23.8727 25.8271L27.3581 27.2271C27.6789 27.3438 28.0435 27.2271 28.2185 26.9063L31.0185 22.0646C31.1935 21.7437 31.1206 21.3792 30.8435 21.175L27.9123 18.8708ZM17.4998 22.75C14.6123 22.75 12.2498 20.3875 12.2498 17.5C12.2498 14.6125 14.6123 12.25 17.4998 12.25C20.3873 12.25 22.7498 14.6125 22.7498 17.5C22.7498 20.3875 20.3873 22.75 17.4998 22.75Z" fill="#666666"/>
</g>
<defs>
<clipPath id="clip0_19_31">
<rect width="35" height="35" fill="white"/>
</clipPath>
</defs>
</svg>
