<svg width="22" height="22" viewBox="0 0 22 22" fill="none" xmlns="http://www.w3.org/2000/svg">
<path d="M11 12.375C12.4942 12.375 13.8142 13.09 14.8867 14.025C15.8767 14.905 16.5 16.885 16.5 19.03V22H5.5V19.0483C5.5 16.885 6.12333 14.905 7.11333 14.0433C8.18583 13.09 9.50583 12.375 11 12.375ZM3.66667 12.8333C4.675 12.8333 5.5 11.1833 5.5 9.16667C5.5 7.15 4.675 5.5 3.66667 5.5C2.65833 5.5 1.83333 7.15 1.83333 9.16667C1.83333 11.1833 2.65833 12.8333 3.66667 12.8333ZM4.7025 14.85C4.36333 14.74 4.02417 14.6667 3.66667 14.6667C2.75917 14.6667 1.8975 15.0517 1.11833 15.73C0.44 16.3167 0 17.6367 0 19.1217V22H4.125V19.0483C4.125 17.5267 4.33583 16.0967 4.7025 14.85ZM18.3333 12.8333C19.3417 12.8333 20.1667 11.1833 20.1667 9.16667C20.1667 7.15 19.3417 5.5 18.3333 5.5C17.325 5.5 16.5 7.15 16.5 9.16667C16.5 11.1833 17.325 12.8333 18.3333 12.8333ZM22 19.1217C22 17.6367 21.56 16.3167 20.8817 15.73C20.1025 15.0517 19.2408 14.6667 18.3333 14.6667C17.9758 14.6667 17.6367 14.74 17.2975 14.85C17.6642 16.0967 17.875 17.5267 17.875 19.0483V22H22V19.1217ZM11 0C12.5217 0 13.75 2.45667 13.75 5.5C13.75 8.54333 12.5217 11 11 11C9.47833 11 8.25 8.54333 8.25 5.5C8.25 2.45667 9.47833 0 11 0Z" fill="white"/>
</svg>
